<?xml version="1.0" encoding="utf-8"?>
<svg viewBox="-3199.9609 -1700 7410 3900" xmlns="http://www.w3.org/2000/svg">
  <rect width="7410" height="3900" fill="#b22234" x="-3199.961" y="-1700" transform="matrix(1, 0, 0, 1, 1.8189894035458565e-12, 9.094947017729282e-13)"/>
  <path d="M -3199.961 -1250 L 4210.039 -1250 M 4210.039 -650 L -3199.961 -650 M -3199.961 -50 L 4210.039 -50 M 4210.039 550 L -3199.961 550 M -3199.961 1150 L 4210.039 1150 M 4210.039 1750 L -3199.961 1750" stroke="#fff" stroke-width="300" transform="matrix(1, 0, 0, 1, 1.8189894035458565e-12, 9.094947017729282e-13)"/>
  <rect width="2964" height="2100" fill="#3c3b6e" x="-3199.961" y="-1700" transform="matrix(1, 0, 0, 1, 1.8189894035458565e-12, 9.094947017729282e-13)"/>
  <g fill="#fff" transform="matrix(1, 0, 0, 1, -3199.960693359373, -1699.9999999999995)">
    <g id="s18">
      <g id="s9"/>
    </g>
    <g transform="matrix(1, 0, 0, 1, 2470, 0)">
      <g>
        <path d="M 124.152 90 L 270.61 540.754 L -112.824 262.173 L 361.127 262.173 L -22.307 540.754 L 124.152 90 Z" style=""/>
      </g>
      <g transform="matrix(1, 0, 0, 1, -2.768769, 614.048706)">
        <path d="M 124.152 90 L 270.61 540.754 L -112.824 262.173 L 361.127 262.173 L -22.307 540.754 L 124.152 90 Z" style=""/>
      </g>
      <g transform="matrix(1, 0, 0, 1, -6.014196, 1303.704346)">
        <path d="M 124.152 90 L 270.61 540.754 L -112.824 262.173 L 361.127 262.173 L -22.307 540.754 L 124.152 90 Z" style=""/>
      </g>
      <g transform="matrix(1, 0, 0, 1, -658.34729, 1306.949707)">
        <path d="M 124.152 90 L 270.61 540.754 L -112.824 262.173 L 361.127 262.173 L -22.307 540.754 L 124.152 90 Z" style=""/>
      </g>
      <g transform="matrix(1, 0, 0, 1, -1365.852905, 1300.458862)">
        <path d="M 124.152 90 L 270.61 540.754 L -112.824 262.173 L 361.127 262.173 L -22.307 540.754 L 124.152 90 Z" style=""/>
      </g>
      <g transform="matrix(1, 0, 0, 1, -2079.849121, 1310.19519)">
        <path d="M 124.152 90 L 270.61 540.754 L -112.824 262.173 L 361.127 262.173 L -22.307 540.754 L 124.152 90 Z" style=""/>
      </g>
      <g transform="matrix(1, 0, 0, 1, -2079.849365, 609.180542)">
        <path d="M 124.152 90 L 270.61 540.754 L -112.824 262.173 L 361.127 262.173 L -22.307 540.754 L 124.152 90 Z" style=""/>
      </g>
      <g transform="matrix(1, 0, 0, 1, -671.329163, 605.935059)">
        <path d="M 124.152 90 L 270.61 540.754 L -112.824 262.173 L 361.127 262.173 L -22.307 540.754 L 124.152 90 Z" style=""/>
      </g>
      <g transform="matrix(1, 0, 0, 1, -1359.361938, 609.180481)">
        <path d="M 124.152 90 L 270.61 540.754 L -112.824 262.173 L 361.127 262.173 L -22.307 540.754 L 124.152 90 Z" style=""/>
      </g>
      <g transform="matrix(1, 0, 0, 1, -681.065369, -4.207364)">
        <path d="M 124.152 90 L 270.61 540.754 L -112.824 262.173 L 361.127 262.173 L -22.307 540.754 L 124.152 90 Z" style=""/>
      </g>
      <g transform="matrix(1, 0, 0, 1, -1378.834595, -4.207356)">
        <path d="M 124.152 90 L 270.61 540.754 L -112.824 262.173 L 361.127 262.173 L -22.307 540.754 L 124.152 90 Z" style=""/>
      </g>
      <g transform="matrix(1, 0, 0, 1, -2092.831055, -17.189108)">
        <path d="M 124.152 90 L 270.61 540.754 L -112.824 262.173 L 361.127 262.173 L -22.307 540.754 L 124.152 90 Z" style=""/>
      </g>
    </g>
  </g>
</svg>